Coordinates
version=1
nRows=21
nColumns=12
inDegrees=yes

Units are S.I. units (second, meters, Newtons, ...)
Angles are in degrees

endheader
time	SC_y	SC_z	SC_x	AC_y	AC_z	AC_x	GH_y	GH_z	GH_yy	EL_x	PS_y
       0.0              -52.47         -2.923          16.01          47.02          -12.0          14.76          112.7          62.24         -135.0          12.17          22.01
  0.002883              -52.47         -2.921          16.01          47.03          -12.0          14.76          112.7          62.23         -135.0          12.18          22.02
  0.005766              -52.46         -2.919          16.01          47.03          -12.0          14.75          112.7          62.23         -134.9          12.19          22.04
   0.00865              -52.46         -2.917          16.01          47.03          -12.0          14.75          112.6          62.22         -134.9           12.2          22.05
   0.01153              -52.45         -2.915          16.01          47.04          -12.0          14.75          112.6          62.21         -134.8          12.21          22.06
   0.01442              -52.45         -2.912          16.01          47.04         -11.99          14.74          112.6           62.2         -134.8          12.22          22.08
    0.0173              -52.44          -2.91          16.01          47.04         -11.99          14.74          112.6          62.19         -134.7          12.23          22.09
   0.02018              -52.44         -2.907          16.01          47.05         -11.99          14.73          112.6          62.18         -134.6          12.25          22.11
   0.02307              -52.43         -2.904          16.01          47.05         -11.99          14.73          112.5          62.17         -134.6          12.26          22.13
   0.02595              -52.42           -2.9          16.01          47.06         -11.99          14.72          112.5          62.16         -134.5          12.27          22.14
   0.02883              -52.42         -2.897          16.01          47.06         -11.99          14.72          112.5          62.15         -134.4          12.29          22.16
   0.03171              -52.41         -2.893          16.01          47.07         -11.99          14.71          112.5          62.14         -134.3          12.31          22.19
    0.0346               -52.4         -2.889          16.01          47.07         -11.99           14.7          112.4          62.12         -134.2          12.32          22.21
   0.03748              -52.39         -2.884          16.01          47.08         -11.99           14.7          112.4          62.11         -134.1          12.34          22.23
   0.04036              -52.38          -2.88          16.01          47.08         -11.99          14.69          112.4          62.09         -134.0          12.36          22.26
   0.04325              -52.37         -2.874          16.01          47.09         -11.99          14.68          112.4          62.07         -133.9          12.39          22.29
   0.04613              -52.36         -2.869          16.01           47.1         -11.99          14.67          112.3          62.05         -133.8          12.41          22.32
   0.04901              -52.35         -2.863          16.01          47.11         -11.99          14.66          112.3          62.03         -133.7          12.44          22.36
    0.0519              -52.33         -2.856          16.01          47.12         -11.99          14.65          112.2          62.01         -133.5          12.47           22.4
   0.05478              -52.32         -2.848          16.01          47.13         -11.98          14.64          112.2          61.99         -133.3           12.5          22.44
   0.05766               -52.3          -2.84          16.01          47.14         -11.98          14.62          112.1          61.96         -133.2          12.54          22.48
